FFmpeg version SVN-r25716, Copyright (c) 2000-2010 the FFmpeg developers  built on Nov 10 2010 12:23:18 with gcc 4.1.2 20080704 (Red Hat 4.1.2-48)  configuration: --enable-libmp3lame --enable-shared --disable-mmx --arch=x86_64  libavutil     50.33. 0 / 50.33. 0  libavcore      0.12. 1 /  0.12. 1  libavcodec    52.94. 4 / 52.94. 4  libavformat   52.84. 0 / 52.84. 0  libavdevice   52. 2. 2 / 52. 2. 2  libavfilter    1.59. 0 /  1.59. 0  libswscale     0.12. 0 /  0.12. 0Input #0, mov,mp4,m4a,3gp,3g2,mj2, from '/RAID10/data/converted_video_files/26291.mov':  Metadata:    major_brand     : qt      minor_version   : 0    compatible_brands: qt      encoder         : CoreMediaAuthoring 700, CoreMedia 484.20, i386    encoder-eng     : CoreMediaAuthoring 700, CoreMedia 484.20, i386  Duration: 00:00:30.04, start: 0.000000, bitrate: 1996 kb/s    Stream #0.0(eng): Video: h264, yuv420p, 512x512, 1992 kb/s, 24 fps, 24 tbr, 24 tbn, 48 tbc[buffer @ 0x631ac40] w:512 h:512 pixfmt:yuv420pOutput #0, flv, to '/RAID10/data/converted_video_files/26291.flv':  Metadata:    encoder         : Lavf52.84.0    Stream #0.0(eng): Video: flv, yuv420p, 512x512, q=2-31, 600 kb/s, 1k tbn, 24 tbcStream mapping:  Stream #0.0 -> #0.0Press [q] to stop encodingframe=   25 fps=  0 q=24.8 size=     619kB time=1.04 bitrate=4865.4kbits/s    frame=   60 fps= 57 q=31.0 size=     690kB time=2.50 bitrate=2261.0kbits/s    frame=  102 fps= 66 q=31.0 size=     813kB time=4.25 bitrate=1568.0kbits/s    frame=  144 fps= 70 q=31.0 size=     906kB time=6.00 bitrate=1237.6kbits/s    frame=  189 fps= 74 q=31.0 size=    1031kB time=7.88 bitrate=1072.1kbits/s    frame=  236 fps= 77 q=31.0 size=    1147kB time=9.83 bitrate= 955.3kbits/s    frame=  270 fps= 76 q=31.0 size=    1233kB time=11.25 bitrate= 897.6kbits/s    frame=  312 fps= 76 q=31.0 size=    1339kB time=13.00 bitrate= 844.1kbits/s    frame=  348 fps= 76 q=31.0 size=    1430kB time=14.50 bitrate= 807.7kbits/s    frame=  381 fps= 75 q=31.0 size=    1512kB time=15.88 bitrate= 780.4kbits/s    frame=  418 fps= 75 q=31.0 size=    1604kB time=17.42 bitrate= 754.3kbits/s    frame=  446 fps= 73 q=31.0 size=    1664kB time=18.58 bitrate= 733.7kbits/s    frame=  486 fps= 73 q=31.0 size=    1767kB time=20.25 bitrate= 714.8kbits/s    frame=  541 fps= 76 q=31.0 size=    1886kB time=22.54 bitrate= 685.5kbits/s    frame=  587 fps= 77 q=24.6 size=    2007kB time=24.46 bitrate= 672.3kbits/s    frame=  629 fps= 77 q=24.9 size=    2126kB time=26.21 bitrate= 664.6kbits/s    frame=  671 fps= 78 q=21.2 size=    2229kB time=27.96 bitrate= 653.0kbits/s    frame=  713 fps= 78 q=22.4 size=    2360kB time=29.71 bitrate= 650.8kbits/s    frame=  721 fps= 77 q=22.0 Lsize=    2375kB time=30.04 bitrate= 647.7kbits/s    video:2364kB audio:0kB global headers:0kB muxing overhead 0.485273%